<svg xmlns="http://www.w3.org/2000/svg" width="64" height="64" xml:space="preserve"><path fill="#545C66" d="M44 5H20c-2.76 0-5 2.24-5 5v47.002c0 3.3 2.7 6 6 6h22c3.3 0 6-2.7 6-6V10c0-2.76-2.24-5-5-5z"/><path fill="#656D78" d="M44 .998H20c-2.76 0-5 2.24-5 5v47c0 3.3 2.7 6 6 6h22c3.3 0 6-2.7 6-6v-47c0-2.76-2.24-5-5-5z"/><path fill="#E6E9ED" d="M15 6.998h34v44H15z"/><path fill="#AAB2BD" d="M32 52.998a2 2 0 1 1 .001 4.001A2 2 0 0 1 32 52.998z"/><g><path fill="#FFF" d="M41.5 39.998h-19v-.01a1.496 1.496 0 1 1 0-2.99h19c.83 0 1.5.67 1.5 1.5 0 .82-.67 1.5-1.5 1.5zM41.5 33.998h-19v-.01a1.496 1.496 0 1 1 0-2.99h19c.83 0 1.5.67 1.5 1.5 0 .82-.67 1.5-1.5 1.5z"/><path fill="#EAC6BB" d="M34 20.998c0 1.1-.9 2-2 2s-2-.9-2-2a2 2 0 1 1 4 0z"/><path fill="#AC92EC" d="M32 22.998c1.74 0 3.22 1.1 3.77 2.66-1.029.84-2.34 1.34-3.77 1.34s-2.74-.5-3.77-1.34a4 4 0 0 1 3.77-2.66z"/><path fill="#656D78" d="M30 20.998c0 1.1.9 2 2 2a4 4 0 0 0-3.77 2.66 5.967 5.967 0 0 1-2.23-4.66c0-3.32 2.69-6 6-6s6 2.68 6 6c0 1.88-.87 3.57-2.23 4.66a3.984 3.984 0 0 0-3.77-2.66 2 2 0 1 0-2-2z"/></g><g><path d="M43 60H21c-3.859 0-7-3.141-7-7a1 1 0 1 1 2 0c0 2.757 2.243 5 5 5h22c2.757 0 5-2.243 5-5a1 1 0 1 1 2 0c0 3.859-3.141 7-7 7zM29.03 5c-.553 0-1.005-.447-1.005-1s.442-1 .994-1h.011a1 1 0 1 1 0 2zM35 5h-3a1 1 0 1 1 0-2h3a1 1 0 1 1 0 2zM49 7.002a1 1 0 0 1-1-1c0-2.206-1.794-4-4-4a1 1 0 1 1 0-2c3.309 0 6 2.691 6 6a1 1 0 0 1-1 1zM15 7a1 1 0 0 1-1-1c0-3.309 2.691-6 6-6a1 1 0 1 1 0 2c-2.206 0-4 1.794-4 4a1 1 0 0 1-1 1z"/><path d="M44 2H20a1 1 0 1 1 0-2h24a1 1 0 1 1 0 2zM49 8.002H15a1 1 0 1 1 0-2h34a1 1 0 1 1 0 2z"/><g><path d="M43 64H21c-3.859 0-7-3.141-7-7V6a1 1 0 1 1 2 0v51c0 2.757 2.243 5 5 5h22c2.757 0 5-2.243 5-5V6.002a1 1 0 1 1 2 0V57c0 3.859-3.141 7-7 7z"/><path d="M49 52H15a1 1 0 1 1 0-2h34a1 1 0 1 1 0 2zM32 58c-1.654 0-3-1.346-3-3s1.346-3 3-3 3 1.346 3 3-1.346 3-3 3zm0-4a1 1 0 1 0 0 2 1 1 0 0 0 0-2z"/></g><g><path d="M22.5 34.996c-1.378 0-2.499-1.121-2.499-2.499s1.121-2.499 2.499-2.499a1 1 0 1 1 0 2 .5.5 0 0 0 0 .998 1 1 0 1 1 0 2zM41.5 34.998a1 1 0 1 1 0-2c.275 0 .5-.225.5-.5s-.225-.5-.5-.5a1 1 0 1 1 0-2c1.379 0 2.5 1.121 2.5 2.5s-1.121 2.5-2.5 2.5z"/><path d="M41.5 31.998h-19a1 1 0 1 1 0-2h19a1 1 0 1 1 0 2zM41.5 34.998h-19a1 1 0 1 1 0-2h19a1 1 0 1 1 0 2z"/></g><g><path d="M22.5 40.996c-1.378 0-2.499-1.121-2.499-2.499s1.121-2.499 2.499-2.499a1 1 0 1 1 0 2 .5.5 0 0 0 0 .998 1 1 0 1 1 0 2zM41.5 40.998a1 1 0 1 1 0-2c.275 0 .5-.225.5-.5s-.225-.5-.5-.5a1 1 0 1 1 0-2c1.379 0 2.5 1.121 2.5 2.5s-1.121 2.5-2.5 2.5z"/><path d="M41.5 37.998h-19a1 1 0 1 1 0-2h19a1 1 0 1 1 0 2zM41.5 40.998h-19a1 1 0 1 1 0-2h19a1 1 0 1 1 0 2z"/></g><g><path d="M37 44.999H27a1 1 0 1 1 0-2h10a1 1 0 1 1 0 2z"/></g><g><path d="M32 27.998c-3.859 0-7-3.141-7-7s3.141-7 7-7 7 3.141 7 7-3.141 7-7 7zm0-12c-2.757 0-5 2.243-5 5s2.243 5 5 5 5-2.243 5-5-2.243-5-5-5z"/><path d="M32 23.998c-1.654 0-3-1.346-3-3s1.346-3 3-3 3 1.346 3 3-1.346 3-3 3zm0-4a1 1 0 1 0 0 2 1 1 0 0 0 0-2z"/><path d="M28.229 26.664a.998.998 0 0 1-.942-1.333 5.007 5.007 0 0 1 4.715-3.333 5.008 5.008 0 0 1 4.712 3.325 1 1 0 1 1-1.884.67 3.006 3.006 0 0 0-2.827-1.995c-1.27 0-2.407.804-2.83 1.999a1.003 1.003 0 0 1-.944.667z"/></g></g></svg>